<svg xmlns="http://www.w3.org/2000/svg" width="560" height="520" viewBox="0 0 560 520" role="img" aria-labelledby="title desc">
  <title id="title">Framer SEO Writer skill preview</title>
  <desc id="desc">A preview of the Framer SEO Writer Codex skill package with the skill name, package files, and output types.</desc>
  <rect width="560" height="520" fill="#e7dfd1"/>
  <rect x="48" y="48" width="464" height="424" fill="#fffaf1" stroke="#171512" stroke-width="2"/>
  <rect x="48" y="48" width="464" height="58" fill="#171512"/>
  <circle cx="82" cy="77" r="8" fill="#f06a4d"/>
  <circle cx="110" cy="77" r="8" fill="#e5c145"/>
  <circle cx="138" cy="77" r="8" fill="#55a978"/>
  <text x="176" y="84" fill="#fffaf1" font-family="ui-monospace, SFMono-Regular, Menlo, monospace" font-size="18" font-weight="700">framer-seo-writer</text>
  <text x="78" y="152" fill="#171512" font-family="ui-monospace, SFMono-Regular, Menlo, monospace" font-size="20" font-weight="700">Framer SEO Writer</text>
  <text x="78" y="190" fill="#4a453d" font-family="ui-monospace, SFMono-Regular, Menlo, monospace" font-size="14">SKILL.md</text>
  <text x="78" y="218" fill="#4a453d" font-family="ui-monospace, SFMono-Regular, Menlo, monospace" font-size="14">agents/openai.yaml</text>
  <path d="M78 258H482" stroke="#171512" stroke-width="2"/>
  <g fill="#fff" stroke="#171512" stroke-width="2">
    <rect x="78" y="292" width="168" height="74"/>
    <rect x="276" y="292" width="168" height="74"/>
    <rect x="78" y="390" width="168" height="52"/>
    <rect x="276" y="390" width="168" height="52"/>
  </g>
  <g fill="#171512" font-family="ui-monospace, SFMono-Regular, Menlo, monospace" font-size="14" font-weight="700">
    <text x="98" y="324">SEO pages</text>
    <text x="296" y="324">AEO answers</text>
    <text x="98" y="422">Metadata</text>
    <text x="296" y="422">FAQs</text>
  </g>
  <g fill="#5c5549" font-family="ui-monospace, SFMono-Regular, Menlo, monospace" font-size="12">
    <text x="98" y="346">Framer positioning</text>
    <text x="296" y="346">Answer-first copy</text>
  </g>
</svg>
